<?xml version="1.0" standalone="no"?>
<!DOCTYPE svg PUBLIC "-//W3C//DTD SVG 20010904//EN"
 "http://www.w3.org/TR/2001/REC-SVG-20010904/DTD/svg10.dtd">
<svg version="1.0" xmlns="http://www.w3.org/2000/svg"
 width="1280.000000pt" height="640.000000pt" viewBox="0 0 1280.000000 640.000000"
 preserveAspectRatio="xMidYMid meet">
<metadata>
Created by potrace 1.15, written by Peter Selinger 2001-2017
</metadata>
<g transform="translate(0.000000,640.000000) scale(0.100000,-0.100000)"
fill="#ffc107" stroke="none">
<path d="M9638 6075 c-772 -93 -1504 -467 -2317 -1184 -198 -174 -334 -303
-657 -624 -230 -229 -264 -258 -281 -249 -11 6 -100 93 -199 194 -1144 1171
-1886 1664 -2745 1822 -560 103 -1141 38 -1669 -186 -885 -376 -1533 -1167
-1714 -2093 -41 -207 -51 -318 -51 -565 0 -392 54 -719 176 -1065 338 -964
1145 -1627 2164 -1779 634 -95 1337 26 1957 335 243 121 448 250 703 441 321
239 556 450 1061 950 176 175 327 318 334 318 8 0 77 -66 154 -146 172 -179
592 -584 770 -743 820 -731 1442 -1055 2226 -1163 58 -8 194 -12 350 -12 213
0 279 4 400 23 650 100 1205 379 1659 832 457 457 742 1045 823 1699 19 155
16 563 -6 720 -78 561 -275 1067 -568 1457 -95 128 -294 332 -425 435 -364
290 -837 486 -1378 570 -172 26 -594 34 -767 13z m-6331 -1199 c336 -71 676
-233 1010 -481 119 -88 297 -234 413 -339 146 -133 880 -850 880 -860 0 -16
-640 -649 -795 -788 -492 -438 -947 -715 -1375 -839 -202 -58 -321 -74 -565
-74 -190 0 -235 3 -334 23 -590 119 -1022 504 -1210 1077 -160 489 -130 953
90 1385 252 496 706 824 1266 915 63 10 146 13 293 10 172 -3 225 -8 327 -29z
m6863 19 c327 -46 605 -171 841 -378 439 -384 649 -1063 517 -1677 -134 -625
-615 -1131 -1229 -1295 -148 -39 -279 -55 -454 -55 -310 0 -559 62 -870 215
-327 160 -642 391 -1037 761 -248 232 -743 719 -746 734 -3 16 466 495 668
681 682 630 1221 933 1800 1014 130 18 382 18 510 0z"/>
</g>
</svg>
